<?xml version='1.0' encoding='UTF-8'?>
<!DOCTYPE svg PUBLIC "-//W3C//DTD SVG 1.1//EN" "http://www.w3.org/Graphics/SVG/1.1/DTD/svg11.dtd">
<svg xmlns="http://www.w3.org/2000/svg" version="1.1" width="968" height="278">
  <g>
    <line x1="100" y1="20" x2="100" y2="28" style="fill:rgb(211,211,211);stroke:black;stroke-width:1;fill-opacity:1;"/>
    <rect x="100" y="28" width="768" height="30" style="fill:rgb(211,211,211);stroke:black;stroke-width:1;fill-opacity:1;"/>
    <text x="484" y="47.5" style="fill:black;font-family:monospace;font-size:16;text-anchor:middle">RES0</text>
    <line x1="868" y1="20" x2="868" y2="28" style="fill:rgb(211,211,211);stroke:black;stroke-width:1;fill-opacity:1;"/>
    <text x="112" y="24" style="font-family: monospace;fill:black" font-size="11" text-anchor="middle">127</text>
    <text x="856" y="24" style="font-family: monospace;fill:black" font-size="11" text-anchor="middle">96</text>
  </g>
  <g/>
  <line x1="868" y1="0" x2="968" y2="0" style="stroke-opacity:0;stroke:black;stroke-width:1;"/>
  <line x1="873" y1="28" x2="873" y2="58" stroke-dasharray="3, 3" style="stroke:black;stroke-width:2"/>
  <line x1="95" y1="88" x2="95" y2="118" stroke-dasharray="3, 3" style="stroke:black;stroke-width:2"/>
  <g>
    <line x1="100" y1="80" x2="100" y2="88" style="fill:rgb(211,211,211);stroke:black;stroke-width:1;fill-opacity:1;"/>
    <rect x="100" y="88" width="192" height="30" style="fill:rgb(211,211,211);stroke:black;stroke-width:1;fill-opacity:1;"/>
    <text x="196" y="107.5" style="fill:black;font-family:monospace;font-size:16;text-anchor:middle">RES0</text>
    <line x1="292" y1="80" x2="292" y2="88" style="fill:rgb(211,211,211);stroke:black;stroke-width:1;fill-opacity:1;"/>
    <text x="112" y="84" style="font-family: monospace;fill:black" font-size="11" text-anchor="middle">95</text>
    <text x="280" y="84" style="font-family: monospace;fill:black" font-size="11" text-anchor="middle">88</text>
    <rect x="292" y="88" width="192" height="30" style="fill:white;stroke:black;stroke-width:1;fill-opacity:0;"/>
    <text x="388" y="107.5" style="fill:black;font-family:monospace;font-size:16;text-anchor:middle">BADDR[50:43]</text>
    <line x1="484" y1="80" x2="484" y2="88" style="fill:white;stroke:black;stroke-width:1;fill-opacity:0;"/>
    <text x="304" y="84" style="font-family: monospace;fill:black" font-size="11" text-anchor="middle">87</text>
    <text x="472" y="84" style="font-family: monospace;fill:black" font-size="11" text-anchor="middle">80</text>
    <rect x="484" y="88" width="384" height="30" style="fill:rgb(211,211,211);stroke:black;stroke-width:1;fill-opacity:1;"/>
    <text x="676" y="107.5" style="fill:black;font-family:monospace;font-size:16;text-anchor:middle">RES0</text>
    <line x1="868" y1="80" x2="868" y2="88" style="fill:rgb(211,211,211);stroke:black;stroke-width:1;fill-opacity:1;"/>
    <text x="496" y="84" style="font-family: monospace;fill:black" font-size="11" text-anchor="middle">79</text>
    <text x="856" y="84" style="font-family: monospace;fill:black" font-size="11" text-anchor="middle">64</text>
  </g>
  <g/>
  <line x1="868" y1="0" x2="968" y2="0" style="stroke-opacity:0;stroke:black;stroke-width:1;"/>
  <line x1="873" y1="88" x2="873" y2="118" stroke-dasharray="3, 3" style="stroke:black;stroke-width:2"/>
  <line x1="95" y1="148" x2="95" y2="178" stroke-dasharray="3, 3" style="stroke:black;stroke-width:2"/>
  <g>
    <line x1="100" y1="140" x2="100" y2="148" style="fill:white;stroke:black;stroke-width:1;fill-opacity:0;"/>
    <rect x="100" y="148" width="384" height="30" style="fill:white;stroke:black;stroke-width:1;fill-opacity:0;"/>
    <text x="292" y="167.5" style="fill:black;font-family:monospace;font-size:16;text-anchor:middle">VMID</text>
    <line x1="484" y1="140" x2="484" y2="148" style="fill:white;stroke:black;stroke-width:1;fill-opacity:0;"/>
    <text x="112" y="144" style="font-family: monospace;fill:black" font-size="11" text-anchor="middle">63</text>
    <text x="472" y="144" style="font-family: monospace;fill:black" font-size="11" text-anchor="middle">48</text>
    <rect x="484" y="148" width="384" height="30" style="fill:white;stroke:black;stroke-width:1;fill-opacity:0;"/>
    <text x="676" y="167.5" style="fill:black;font-family:monospace;font-size:16;text-anchor:middle">BADDR[42:0]</text>
    <line x1="868" y1="140" x2="868" y2="148" style="fill:white;stroke:black;stroke-width:1;fill-opacity:0;"/>
    <text x="496" y="144" style="font-family: monospace;fill:black" font-size="11" text-anchor="middle">47</text>
    <text x="856" y="144" style="font-family: monospace;fill:black" font-size="11" text-anchor="middle">32</text>
  </g>
  <g/>
  <line x1="868" y1="0" x2="968" y2="0" style="stroke-opacity:0;stroke:black;stroke-width:1;"/>
  <line x1="873" y1="148" x2="873" y2="178" stroke-dasharray="3, 3" style="stroke:black;stroke-width:2"/>
  <line x1="95" y1="208" x2="95" y2="238" stroke-dasharray="3, 3" style="stroke:black;stroke-width:2"/>
  <g>
    <line x1="100" y1="200" x2="100" y2="208" style="fill:white;stroke:black;stroke-width:1;fill-opacity:0;"/>
    <rect x="100" y="208" width="648" height="30" style="fill:white;stroke:black;stroke-width:1;fill-opacity:0;"/>
    <text x="424" y="227.5" style="fill:black;font-family:monospace;font-size:16;text-anchor:middle">BADDR[42:0]</text>
    <line x1="748" y1="200" x2="748" y2="208" style="fill:white;stroke:black;stroke-width:1;fill-opacity:0;"/>
    <text x="112" y="204" style="font-family: monospace;fill:black" font-size="11" text-anchor="middle">31</text>
    <text x="736" y="204" style="font-family: monospace;fill:black" font-size="11" text-anchor="middle">5</text>
    <rect x="748" y="208" width="48" height="30" style="fill:rgb(211,211,211);stroke:black;stroke-width:1;fill-opacity:1;"/>
    <text x="772" y="227.5" style="fill:black;font-family:monospace;font-size:16;text-anchor:middle">RES0</text>
    <line x1="796" y1="200" x2="796" y2="208" style="fill:rgb(211,211,211);stroke:black;stroke-width:1;fill-opacity:1;"/>
    <text x="760" y="204" style="font-family: monospace;fill:black" font-size="11" text-anchor="middle">4</text>
    <text x="784" y="204" style="font-family: monospace;fill:black" font-size="11" text-anchor="middle">3</text>
    <rect x="796" y="208" width="48" height="30" style="fill:white;stroke:black;stroke-width:1;fill-opacity:0;"/>
    <text x="820" y="227.5" style="fill:black;font-family:monospace;font-size:16;text-anchor:middle">SKL</text>
    <line x1="844" y1="200" x2="844" y2="208" style="fill:white;stroke:black;stroke-width:1;fill-opacity:0;"/>
    <text x="808" y="204" style="font-family: monospace;fill:black" font-size="11" text-anchor="middle">2</text>
    <text x="832" y="204" style="font-family: monospace;fill:black" font-size="11" text-anchor="middle">1</text>
    <rect x="844" y="208" width="24" height="30" style="fill:white;stroke:black;stroke-width:1;fill-opacity:0;"/>
    <line x1="868" y1="200" x2="868" y2="208" style="fill:white;stroke:black;stroke-width:1;fill-opacity:0;"/>
    <text x="856" y="204" style="font-family: monospace;fill:black" font-size="11" text-anchor="middle">0</text>
  </g>
  <g/>
  <line x1="868" y1="0" x2="968" y2="0" style="stroke-opacity:0;stroke:black;stroke-width:1;"/>
  <line x1="856" y1="240" x2="856" y2="258" style="fill:white;stroke:black;stroke-width:1;fill-opacity:0;"/>
  <line x1="856" y1="258" x2="866" y2="258" style="fill:white;stroke:black;stroke-width:1;fill-opacity:0;"/>
  <text x="868" y="260" style="fill:black;font-family:monospace;font-size:16;text-anchor:start">CnP</text>
</svg>
